<svg width="75" height="75" viewBox="0 0 75 75" fill="none" xmlns="http://www.w3.org/2000/svg">
<mask id="path-1-inside-1_555_6438" fill="white">
<path d="M50.5 57C50.5 52.5534 53.4167 50.0015 56.75 46.6616C60.9167 42.9041 63 37.4768 63 32.0494C63 25.4059 60.3661 19.0345 55.6777 14.3368C50.9893 9.63913 44.6304 7 38 7C31.3696 7 25.0107 9.63913 20.3223 14.3368C15.6339 19.0345 13 25.4059 13 32.0494C13 36.2243 13.8333 41.2342 19.25 46.6616C22.1667 49.584 25.5 53.0968 25.5 57"/>
</mask>
<path d="M45.5 57C45.5 59.7614 47.7386 62 50.5 62C53.2614 62 55.5 59.7614 55.5 57H45.5ZM56.75 46.6616L53.4015 42.9484C53.3364 43.0071 53.2729 43.0675 53.211 43.1295L56.75 46.6616ZM38 7V2V7ZM13 32.0494H8H13ZM19.25 46.6616L15.711 50.1936L15.711 50.1936L19.25 46.6616ZM20.5 57C20.5 59.7614 22.7386 62 25.5 62C28.2614 62 30.5 59.7614 30.5 57H20.5ZM55.5 57C55.5 55.0507 56.4363 54.0539 60.289 50.1936L53.211 43.1295C50.397 45.949 45.5 50.056 45.5 57H55.5ZM60.0985 50.3747C65.4451 45.5532 68 38.7095 68 32.0494H58C58 36.244 56.3882 40.2551 53.4015 42.9484L60.0985 50.3747ZM68 32.0494C68 24.083 64.8417 16.4409 59.2167 10.8048L52.1387 17.8688C55.8905 21.6281 58 26.7288 58 32.0494H68ZM59.2167 10.8048C53.5914 5.16831 45.9597 2 38 2V12C43.3011 12 48.3872 14.1099 52.1387 17.8688L59.2167 10.8048ZM38 2C30.0403 2 22.4086 5.16831 16.7833 10.8048L23.8614 17.8688C27.6128 14.1099 32.6989 12 38 12V2ZM16.7833 10.8048C11.1583 16.4409 8 24.083 8 32.0494L18 32.0494C18 26.7288 20.1095 21.6281 23.8614 17.8688L16.7833 10.8048ZM8 32.0494C8 37.2003 9.13847 43.6081 15.711 50.1936L22.789 43.1295C18.5282 38.8603 18 35.2483 18 32.0494H8ZM15.711 50.1936C17.1827 51.6683 18.4453 52.9902 19.357 54.3078C20.2717 55.63 20.5 56.483 20.5 57H30.5C30.5 53.6138 29.0616 50.7588 27.5805 48.6182C26.0963 46.473 24.2339 44.5773 22.789 43.1295L15.711 50.1936Z" fill="#193730" mask="url(#path-1-inside-1_555_6438)"/>
<path d="M26 62H50" stroke="#193730" stroke-width="4" stroke-linecap="round"/>
<path d="M29 69H47" stroke="#193730" stroke-width="4" stroke-linecap="round"/>
<path d="M48 27.9994C44.5047 18.4998 29.0333 21.8517 27.1891 30.5054C24.9085 41.2066 43.9975 35.8002 44.5047 42.7042C45.012 49.6081 38.5435 53.7329 35.5 54.5" stroke="#FF9500" stroke-width="6"/>
</svg>
